# xmcd CD database file
#
# Track frame offsets:
#	152
#	4200
#	17409
#	32884
#	50554
#	68151
#	86615
#	107825
#	124707
#	149689
#	172765
#	196715
#	219866
#	238103
#
# Disc length: 3433 seconds
#
# Revision: 1
# Processed by: cddbd v1.5.2PL0 Copyright (c) Steve Scherf et al.
# Submitted via: CDex 2.12
#
DISCID=b80d670e
DTITLE=Kuba Badach - Obecny. Tribute to Andrzej Zaucha
DYEAR=2009
DGENRE=Jazz
TTITLE0=Co jest modne
TTITLE1=Dzien dobry, Mr. Blues
TTITLE2=Masz przewrocone w glowie
TTITLE3=Leniwy Diabel
TTITLE4=Zakochani staruszkowie
TTITLE5=C'est la vie
TTITLE6=Wymyslilem ciebie
TTITLE7=Badz moim natchnieniem
TTITLE8=Jak na lotni
TTITLE9=Bylas serca biciem
TTITLE10=Bezsennosc we dwoje
TTITLE11=Wieczor nad rzeka zdarzen
TTITLE12=Mysmy byli sobie pisani
TTITLE13=Siodmy rok
EXTD=YEAR: 2009
EXTT0=
EXTT1=
EXTT2=
EXTT3=
EXTT4=
EXTT5=
EXTT6=
EXTT7=
EXTT8=
EXTT9=
EXTT10=
EXTT11=
EXTT12=
EXTT13=
PLAYORDER=
